# xmcd CD database file
#
# Track frame offsets:
#	150
#	17173
#	46687
#
# Disc length: 846 seconds
#
# Revision: 1
# Processed by: cddbd v1.5.2PL0 Copyright (c) Steve Scherf et al.
# Submitted via: CDex 1.70beta2
#
DISCID=18034c03
DTITLE=bird - BATUCADA -バトゥカーダ-
DYEAR=2007
DGENRE=JPop
TTITLE0=BATUCADA -バトゥカーダ-
TTITLE1=BATUCADA(DJ FUMIYA REMIX)
TTITLE2=BATUCADA(Instrumental)
EXTD=YEAR: 2007
EXTT0=
EXTT1=
EXTT2=
PLAYORDER=
